<svg xmlns="http://www.w3.org/2000/svg" width="32" height="32" viewBox="0 0 32 32">
  <circle cx="16" cy="16" r="16" fill="#FF4500"/>
  <g fill="white">
    <circle cx="21.5" cy="9.5" r="1.8"/>
    <path d="M25.8 16c0 1.2-1 2.2-2.2 2.2-0.6 0-1.1-0.2-1.5-0.6-1.4 1-3.4 1.6-5.6 1.7l1 4.6 3.2-0.7c0-0.9 0.8-1.6 1.7-1.6 0.9 0 1.7 0.7 1.7 1.7s-0.7 1.7-1.7 1.7c-0.7 0-1.2-0.4-1.5-1l-3.6 0.8c-0.2 0-0.3-0.1-0.3-0.3l-1.1-5.1c-2.3-0.1-4.3-0.7-5.7-1.7-0.4 0.4-0.9 0.6-1.5 0.6-1.2 0-2.2-1-2.2-2.2 0-0.9 0.5-1.6 1.3-2-0.1-0.3-0.1-0.6-0.1-0.9 0-3.1 3.5-5.6 7.9-5.6s7.9 2.5 7.9 5.6c0 0.3 0 0.6-0.1 0.9 0.7 0.4 1.2 1.1 1.2 2zm-13.5 0.4c0 0.7 0.6 1.3 1.3 1.3s1.3-0.6 1.3-1.3-0.6-1.3-1.3-1.3-1.3 0.6-1.3 1.3zm7.5 3.8c0.9 0 1.7-0.2 2.3-0.5 0.2-0.1 0.2-0.3 0.1-0.4-0.1-0.2-0.3-0.2-0.4-0.1-0.5 0.2-1.2 0.4-2 0.4s-1.5-0.2-2-0.4c-0.2-0.1-0.3-0.1-0.4 0.1-0.1 0.2-0.1 0.3 0.1 0.4 0.6 0.3 1.4 0.5 2.3 0.5zm1-2.5c0.7 0 1.3-0.6 1.3-1.3s-0.6-1.3-1.3-1.3-1.3 0.6-1.3 1.3 0.6 1.3 1.3 1.3z"/>
  </g>
</svg>