<svg xmlns="http://www.w3.org/2000/svg" width="32" height="32" viewBox="0 0 32 32">
  <rect width="32" height="32" rx="8" fill="#000000"/>
  <path d="M19.93 13.92c-.19-.3-.42-.57-.69-.8a3.7 3.7 0 0 0-.95-.53c-.36-.13-.76-.19-1.19-.19s-.83.06-1.19.19c-.36.13-.67.3-.95.53-.27.23-.5.5-.69.8-.19.3-.28.63-.28.98 0 .53.11.98.32 1.36.21.38.5.68.85.9.35.22.75.37 1.19.45.44.08.9.08 1.35 0 .44-.08.84-.23 1.19-.45.35-.22.64-.52.85-.9.21-.38.32-.83.32-1.36 0-.35-.09-.68-.28-.98zM16 26c-5.51 0-10-4.49-10-10S10.49 6 16 6s10 4.49 10 10-4.49 10-10 10zm3.09-7.84c.13-.29.23-.6.29-.93.06-.33.09-.67.09-1.03 0-.6-.1-1.16-.31-1.68-.21-.52-.51-.97-.9-1.36-.39-.39-.86-.7-1.4-.92-.54-.22-1.14-.34-1.78-.34-.49 0-.95.07-1.38.2-.43.13-.82.32-1.17.56-.35.24-.65.52-.91.85-.26.33-.46.69-.61 1.08-.09-.01-.19-.02-.28-.02-.36 0-.69.06-.99.17-.3.11-.56.27-.78.47-.22.2-.39.44-.51.71-.12.27-.18.56-.18.88 0 .32.06.61.18.88.12.27.29.51.51.71.22.2.48.36.78.47.3.11.63.17.99.17.09 0 .19-.01.28-.02.15.39.35.75.61 1.08.26.33.56.61.91.85.35.24.74.43 1.17.56.43.13.89.2 1.38.2.64 0 1.24-.12 1.78-.34.54-.22 1.01-.53 1.4-.92.39-.39.69-.84.9-1.36.21-.52.31-1.08.31-1.68 0-.36-.03-.7-.09-1.03-.06-.33-.16-.64-.29-.93zm-1.52 3.68c-.34.34-.76.6-1.24.78-.48.18-1.02.27-1.61.27-.45 0-.87-.05-1.26-.16-.39-.11-.74-.27-1.04-.48-.3-.21-.54-.47-.72-.78-.18-.31-.27-.66-.27-1.05 0-.11 0-.22.02-.33.17.09.35.16.54.22.3.09.63.14.97.14.45 0 .87-.08 1.26-.23.39-.15.73-.36 1.02-.64.29-.28.52-.62.68-1.02.16-.4.24-.85.24-1.34 0-.12-.01-.23-.02-.35.31.11.59.26.83.45.31.24.56.54.76.89.2.35.3.75.3 1.21 0 .45-.1.87-.3 1.26-.2.39-.49.72-.84 1.01-.35.29-.77.52-1.24.67-.47.15-.98.23-1.52.23-.24 0-.47-.02-.69-.05.15-.28.35-.53.6-.73.25-.2.54-.35.86-.44-.12-.07-.24-.16-.35-.26-.11-.1-.21-.22-.29-.35-.14.08-.28.14-.44.19-.24.08-.5.12-.77.12s-.53-.04-.77-.12c-.24-.08-.45-.2-.63-.36-.18-.16-.33-.36-.43-.59-.1-.23-.15-.49-.15-.78s.05-.55.15-.78c.1-.23.25-.43.43-.59.18-.16.39-.28.63-.36.24-.08.5-.12.77-.12s.53.04.77.12c.16.05.3.11.44.19.08-.13.18-.25.29-.35.11-.1.23-.19.35-.26-.32-.09-.61-.24-.86-.44-.25-.2-.45-.45-.6-.73.22-.03.45-.05.69-.05.54 0 1.05.08 1.52.23.47.15.89.38 1.24.67.35.29.64.62.84 1.01.2.39.3.81.3 1.26 0 .46-.1.86-.3 1.21-.2.35-.45.65-.76.89-.24.19-.52.34-.83.45.01.12.02.23.02.35 0 .49-.08.94-.24 1.34-.16.4-.39.74-.68 1.02-.29.28-.63.49-1.02.64-.39.15-.81.23-1.26.23-.34 0-.67-.05-.97-.14-.19-.06-.37-.13-.54-.22-.02.11-.02.22-.02.33 0 .39.09.74.27 1.05.18.31.42.57.72.78.3.21.65.37 1.04.48.39.11.81.16 1.26.16.59 0 1.13-.09 1.61-.27.48-.18.9-.44 1.24-.78z" fill="white"/>
</svg>