<svg xmlns="http://www.w3.org/2000/svg" width="32" height="32" viewBox="0 0 32 32">
  <rect width="32" height="32" rx="6" fill="#000000"/>
  <g>
    <path d="M21.32 10.56c0.85 1.27 2.27 2.11 3.88 2.11v3.36c-1.33 0-2.57-0.37-3.64-1.01v5.32c0 2.66-2.17 4.83-4.83 4.83s-4.83-2.17-4.83-4.83s2.17-4.83 4.83-4.83c0.27 0 0.53 0.02 0.79 0.06v3.37c-0.26-0.05-0.52-0.08-0.79-0.08c-1.63 0-2.96 1.33-2.96 2.96s1.33 2.96 2.96 2.96 2.96-1.33 2.96-2.96V10.56H21.32z" fill="#FF004F"/>
    <path d="M19.5 8.73c0.85 1.27 2.27 2.11 3.88 2.11v3.36c-1.33 0-2.57-0.37-3.64-1.01v5.32c0 1.33-0.54 2.54-1.41 3.41s-2.08 1.41-3.41 1.41c-1.33 0-2.54-0.54-3.41-1.41s-1.41-2.08-1.41-3.41c0-1.33 0.54-2.54 1.41-3.41s2.08-1.41 3.41-1.41c0.27 0 0.53 0.02 0.79 0.06v3.37c-0.26-0.05-0.52-0.08-0.79-0.08c-0.41 0-0.81 0.11-1.16 0.32s-0.62 0.5-0.8 0.86c-0.09 0.18-0.16 0.37-0.2 0.56s-0.06 0.4-0.06 0.6c0 0.81 0.33 1.55 0.86 2.08s1.27 0.86 2.08 0.86c0.81 0 1.55-0.33 2.08-0.86s0.86-1.27 0.86-2.08V8.73h1.64z" fill="#00F7EF"/>
  </g>
</svg>